<svg xmlns="http://www.w3.org/2000/svg" fill="none" viewBox="0 0 32 32"><path d="M11.212 6.348c-5.31 0-9.641 4.336-9.641 9.652s4.331 9.652 9.641 9.652 9.642-4.336 9.642-9.652-4.332-9.652-9.642-9.652zm0 2.442A7.187 7.187 0 0 1 18.414 16c0 3.997-3.21 7.21-7.202 7.21A7.187 7.187 0 0 1 4.01 16c0-3.997 3.21-7.21 7.202-7.21z" style="baseline-shift:baseline;display:inline;overflow:visible;fill:#ff6500;stroke:#000;stroke-width:.32409;stroke-dasharray:none;stroke-opacity:1;stop-color:#000;fill-opacity:1"/><path d="M20.837 6.397c-5.284 0-9.592 4.313-9.592 9.603s4.308 9.603 9.592 9.603S30.43 21.29 30.43 16s-4.308-9.603-9.592-9.603zm0 2.343A7.24 7.24 0 0 1 28.09 16a7.24 7.24 0 0 1-7.252 7.26A7.24 7.24 0 0 1 13.586 16a7.24 7.24 0 0 1 7.251-7.26z" style="baseline-shift:baseline;display:inline;overflow:visible;fill:#ff8d00;stroke:#000;stroke-width:.32409;stroke-dasharray:none;stroke-opacity:1;stop-color:#000;fill-opacity:1"/><g stroke="#fff" style="stroke-width:.810225;fill:#fff;fill-opacity:1"><path d="M16 3.213a.8.8 0 0 0-.8.8v11.188H3.985a.8.8 0 0 0-.8.799.8.8 0 0 0 .8.8H15.2v11.188a.8.8 0 0 0 .8.8.8.8 0 0 0 .8-.8V16.8h11.215a.8.8 0 0 0 .8-.8.8.8 0 0 0-.8-.799H16.8V4.014a.8.8 0 0 0-.8-.8Z" style="baseline-shift:baseline;display:inline;overflow:visible;opacity:1;fill:#fff;stroke:#000;stroke-width:.32409;stroke-linecap:round;stroke-dasharray:none;stroke-opacity:1;stop-color:#000;stop-opacity:1;fill-opacity:1" transform="matrix(1.23288 0 0 1.23557 -3.726 -3.77)"/></g></svg>