<svg xmlns="http://www.w3.org/2000/svg" fill="none" viewBox="0 0 32 32"><path d="M20.069 10.432a9.652 9.652 0 1 0-19.304 0 9.652 9.652 0 1 0 19.304 0m-3.652 0a6 6 0 1 1-12 0 6 6 0 1 1 12 0z" style="baseline-shift:baseline;display:inline;overflow:visible;fill:red;fill-opacity:1;stroke:#000;stroke-width:.8;stroke-dasharray:none;stroke-opacity:1;stop-color:#000"/><path d="m21.483 13.726.513-1.973 2.276.39-.174 2.033 1.303.6 1.432-1.452 1.775 1.477-1.167 1.672.828 1.171 1.966-.541.799 2.166-1.846.866.13 1.427 1.974.514-.39 2.276-2.033-.174-.6 1.303 1.452 1.431-1.477 1.775-1.672-1.166-1.171.827.541 1.967-2.167.799-.865-1.847-1.427.132-.514 1.973-2.276-.39.174-2.033-1.303-.6-1.432 1.452-1.774-1.477 1.166-1.672-.828-1.171-1.966.541-.799-2.167 1.846-.865-.13-1.428-1.974-.514.39-2.275 2.033.174.6-1.303-1.452-1.432 1.477-1.775 1.672 1.167 1.171-.828-.541-1.966 2.167-.799.865 1.846zm0 3.766a4.07 4.07 0 1 0 0 8.141 4.07 4.07 0 1 0 0-8.141z" style="baseline-shift:baseline;display:inline;overflow:visible;fill:#ff8d00;fill-opacity:1;stroke:#000;stroke-width:.8;stroke-dasharray:none;stroke-opacity:1;stop-color:#000"/><path d="M17.424 4.994h1.49L16 .462l-2.913 4.532h1.489v9.582H4.994v-1.49L.462 16l4.532 2.913v-1.489h9.582v9.582h-1.49L16 31.538l2.913-4.532h-1.489v-9.582h9.582v1.49L31.538 16l-4.532-2.913v1.489h-9.582z" style="fill:#fff;fill-opacity:1;stroke:#000;stroke-width:.5;stroke-linecap:round;stroke-dasharray:none;stroke-opacity:1"/></svg>