<svg xmlns="http://www.w3.org/2000/svg" fill="none" viewBox="0 0 32 32"><path d="M22 11.4a10.6 10.6 0 1 0-21.2 0 10.6 10.6 0 1 0 21.2 0m-4.01 0a6.59 6.59 0 1 1-13.18 0 6.59 6.59 0 1 1 13.18 0z" style="baseline-shift:baseline;display:inline;overflow:visible;fill:red;fill-opacity:1;stroke:#000;stroke-width:.8;stroke-dasharray:none;stroke-opacity:1;stop-color:#000"/><path d="m20.6 12.177.552-2.12 2.446.419-.187 2.185 1.4.645 1.54-1.561 1.908 1.587-1.255 1.798.89 1.258 2.114-.581.858 2.328-1.984.93.14 1.534 2.122.553-.42 2.446-2.185-.187-.645 1.4 1.561 1.539-1.587 1.908-1.798-1.254-1.258.89.581 2.114-2.329.858-.93-1.985-1.533.142-.553 2.12-2.446-.418.187-2.186-1.4-.645-1.54 1.561-1.907-1.587 1.254-1.798-.89-1.258-2.114.581-.858-2.329 1.984-.93-.14-1.535-2.122-.552.42-2.445 2.185.187.645-1.4-1.561-1.54 1.587-1.908 1.798 1.255 1.258-.89-.581-2.114 2.329-.858.93 1.984zm0 4.048a4.375 4.375 0 1 0 0 8.75 4.375 4.375 0 1 0 0-8.75z" style="baseline-shift:baseline;display:inline;overflow:visible;fill:#f9f9f9;fill-opacity:1;stroke:#000;stroke-width:.799999;stroke-dasharray:none;stroke-opacity:1;stop-color:#000"/></svg>